<?xml version="1.0" ?><svg style="enable-background:new 0 0 48 48;" version="1.1" viewBox="0 0 48 48" xml:space="preserve" xmlns="http://www.w3.org/2000/svg" xmlns:xlink="http://www.w3.org/1999/xlink"><g id="Icons"><g><path d="M23.99791,8.66002c-8.46997,0-15.34003,6.87-15.34003,15.33996    c0,8.47003,6.87006,15.34003,15.34003,15.34003c8.47998,0,15.34998-6.87,15.34998-15.34003    C39.34789,15.53001,32.47789,8.66002,23.99791,8.66002z M22.83794,28.28001h5.53998c1.03998,0,1.87,0.83997,1.87,1.87    c0,1.02997-0.83002,1.85999-1.87,1.85999h-5.53998c-2.80005,0-5.08002-2.27002-5.08002-5.08002v-9.07996    c0-1.03003,0.83997-1.86005,1.85999-1.86005c1.03998,0,1.87,0.83002,1.87,1.86005v2.20996h6.89001    c1.03998,0,1.87,0.84003,1.87,1.87c0,1.03003-0.83002,1.86005-1.87,1.86005H21.4879v3.13995    C21.4879,27.67997,22.08794,28.28001,22.83794,28.28001z" style="fill:#4AA0EC;"/><circle cx="24" cy="24" r="15.34377" style="fill:none;stroke:#303030;stroke-width:0.7;stroke-linecap:round;stroke-linejoin:round;stroke-miterlimit:10;"/><path d="    M21.89966,11.60966c0.53679-0.09549,1.07644-0.1576,1.61342-0.18429" style="fill:none;stroke:#303030;stroke-width:0.7;stroke-linecap:round;stroke-linejoin:round;stroke-miterlimit:10;"/><path d="    M15.47478,14.6168c1.44125-1.2413,3.22635-2.17318,5.10565-2.70387" style="fill:none;stroke:#303030;stroke-width:0.7;stroke-linecap:round;stroke-linejoin:round;stroke-miterlimit:10;"/><path d="    M21.4841,23.79034v3.14021c0,0.74545,0.60568,1.35113,1.35113,1.35113h5.54429c1.03431,0,1.86363,0.83863,1.86363,1.86362    c0,1.03431-0.82931,1.86363-1.86363,1.86363h-5.54429c-2.79544,0-5.07838-2.27362-5.07838-5.07838v-5.00384v-4.07202    c0-1.03431,0.83863-1.86363,1.86363-1.86363c1.03431,0,1.86362,0.82931,1.86362,1.86363v2.2084h6.89542    c1.03431,0,1.86363,0.83863,1.86363,1.86363c0,1.03431-0.82931,1.86363-1.86363,1.86363H21.4841" style="fill:none;stroke:#303030;stroke-width:0.7;stroke-linecap:round;stroke-linejoin:round;stroke-miterlimit:10;"/></g></g></svg>